# xmcd
#
# Track frame offsets:
#	150
#	19109
#	34692
#	52654
#	69342
#	87475
#	103162
#	120190
#	137383
#	152046
#	162492
#	181645
#	194118
#	204771
#	221033
#	240764
#	258840
#	275780
#	290217
#	301558
#	316405
#	330703
#	352934
#	353384
#	354439
#
# Disc length: 4765 seconds
#
# Revision: 0
# Processed by: cddbd v1.5.2PL0 Copyright (c) Steve Scherf et al.
# Submitted via: audiograbber 1.83.01
#
DISCID=5b129b19
DTITLE=Country Hotdisc - Country Hotdisc 114
DYEAR=2008
DGENRE=Country
TTITLE0=That´s Why I Run  - Billy Yates
TTITLE1=My Someday - Richard Frankz
TTITLE2=Diden´t We Love  - Travis Collins
TTITLE3=You Never Can Tell - Donny Richmond and Stroof
TTITLE4=The Dream Lives On  - Dean Johnson
TTITLE5=Sunday Paper  - Susan Hickman
TTITLE6=Invisibly Shaken  - Rodney Atkins
TTITLE7=One Door Closes  - Martin Smith
TTITLE8=Anyother Fool  - Kate Sansing
TTITLE9=Hansome Molly  - Bryan Chalker
TTITLE10=Time  - Clive John
TTITLE11=The Jukebox, You And Me Girl  - Cordwood Draggeers
TTITLE12=You Can Call Me A Fool - Jason Wilson
TTITLE13=Give My Love To Rose  - Hallur Joensen
TTITLE14=Johnny B Goode  - Narvel Felts
TTITLE15=Home - Bobby Smith
TTITLE16=Billy The Kid  - Colin James
TTITLE17=Bound For Tennessee - Becky Schhlegel
TTITLE18=Anytime  - The Osmonds
TTITLE19=I Love Her Mind  - The Bellamy Brothers
TTITLE20=One Friend  - Dan Seals
TTITLE21=I Can´t Help The Way I Don´t Feel  - Sylvia
TTITLE22=Soundbite  - Travis Collins
TTITLE23=Soundbite  - Travis Collins
TTITLE24=Soundbite  - Travis Collins
EXTD=
EXTT0=
EXTT1=
EXTT2=
EXTT3=
EXTT4=
EXTT5=
EXTT6=
EXTT7=
EXTT8=
EXTT9=
EXTT10=
EXTT11=
EXTT12=
EXTT13=
EXTT14=
EXTT15=
EXTT16=
EXTT17=
EXTT18=
EXTT19=
EXTT20=
EXTT21=
EXTT22=
EXTT23=
EXTT24=
PLAYORDER=
